<?xml version="1.0" encoding="UTF-8"?>
<!-- looped app icon: the hand-drawn loop from plans/mockup/Unbenannt-2024-05-06-1121.svg
     (Excalidraw) recolored to the theme accent, on a Big Sur-grid rounded square in the
     theme background color. Regenerate the .icns with `just icon` (needs librsvg). -->
<svg xmlns="http://www.w3.org/2000/svg" width="1024" height="1024" viewBox="0 0 1024 1024">
  <rect x="100" y="100" width="824" height="824" rx="185" fill="#0E0E10"/>
  <svg x="222" y="309" width="580" height="406" viewBox="0 0 240.74577407783363 168.4234564878425">
    <g stroke-linecap="round"><g transform="translate(215.95062666056037 82.37584369867182) rotate(317.650905406699 -100.14455683329288 -0.5089161180712836)"><path d="M-0.97 -0.41 C-34.31 -0.03, -175.05 18.23, -197.96 2.03 C-220.87 -14.16, -151.28 -110.8, -138.43 -97.6 C-125.58 -84.41, -137.75 48.14, -120.84 81.21 C-103.93 114.28, -51.02 97.03, -36.97 100.8 M3.69 -3.1 C-30.02 -3.48, -175.25 14.58, -199.1 -1.87 C-222.94 -18.33, -152.45 -114.79, -139.39 -101.83 C-126.32 -88.88, -137.26 42.05, -120.71 75.83 C-104.16 109.62, -53.33 96.47, -40.08 100.86" stroke="#FF7A1A" stroke-width="6" fill="none"/></g></g>
  </svg>
</svg>
